<?xml version="1.0" encoding="UTF-8" standalone="no"?>
<!DOCTYPE svg PUBLIC "-//W3C//DTD SVG 1.1//EN" "http://www.w3.org/Graphics/SVG/1.1/DTD/svg11.dtd">
<svg width="100%" height="100%" viewBox="0 0 640 512" version="1.1" xmlns="http://www.w3.org/2000/svg" xmlns:xlink="http://www.w3.org/1999/xlink" xml:space="preserve" xmlns:serif="http://www.serif.com/" style="fill-rule:evenodd;clip-rule:evenodd;stroke-linejoin:round;stroke-miterlimit:1.41421;">
    <path d="M0,256L0,384C0,401.7 14.3,416 32,416L64,416L64,224L32,224C14.3,224 0,238.3 0,256ZM464,96L352,96L352,32C352,14.3 337.7,0 320,0C302.3,0 288,14.3 288,32L288,96L176,96C131.8,96 96,131.8 96,176L96,448C96,483.3 124.7,512 160,512L480,512C515.3,512 544,483.3 544,448L544,176C544,131.8 508.2,96 464,96ZM256,416L192,416L192,384L256,384L256,416ZM224,296C201.9,296 184,278.1 184,256C184,233.9 201.9,216 224,216C246.1,216 264,233.9 264,256C264,278.1 246.1,296 224,296ZM352,416L288,416L288,384L352,384L352,416ZM448,416L384,416L384,384L448,384L448,416ZM416,296C393.9,296 376,278.1 376,256C376,233.9 393.9,216 416,216C438.1,216 456,233.9 456,256C456,278.1 438.1,296 416,296ZM608,224L576,224L576,416L608,416C625.7,416 640,401.7 640,384L640,256C640,238.3 625.7,224 608,224Z" style="fill:rgb(245,0,0);fill-rule:nonzero;"/>
</svg>
